<?xml version="1.0" encoding="iso-8859-1"?>
<!-- Generator: Adobe Illustrator 19.0.0, SVG Export Plug-In . SVG Version: 6.00 Build 0)  -->
<svg version="1.1" id="Capa_1" xmlns="http://www.w3.org/2000/svg" xmlns:xlink="http://www.w3.org/1999/xlink" x="0px" y="0px"
	 viewBox="0 0 496 496" style="enable-background:new 0 0 496 496;" xml:space="preserve">
<g>
	<g>
		<g>
			<path d="M75.428,416h24v-16h-24c-13.232,0-24-10.768-24-24v-24h-16v24C35.428,398.056,53.372,416,75.428,416z"/>
			<rect x="115.428" y="400" width="16" height="16"/>
			<polygon points="267.428,480 75.428,480 75.428,464 59.428,464 59.428,496 283.428,496 283.428,464 267.428,464 			"/>
			<rect x="203.428" y="256" width="16" height="16"/>
			<path d="M315.428,280c0-30.872-25.128-56-56-56h-96v16h96c22.056,0,40,17.944,40,40c0,22.056-17.944,40-40,40h-200
				c-13.232,0-24-10.768-24-24s10.768-24,24-24h56h64h8v-16h-8h-64c-22.056,0-40-17.944-40-40c0-22.056,17.944-40,40-40h64
				c22.456,0,44.472-7.728,61.984-21.744l6.368-5.104c6.552,19.12,10.376,38.992,11.384,59.24l15.984-0.8
				c-1.272-25.64-6.76-50.736-16.288-74.568l-4.008-10.016l-23.44,18.752C216.716,153.52,198.26,160,179.428,160h-64
				c-30.872,0-56,25.128-56,56c0,15.664,6.48,29.824,16.888,40H59.428c-22.056,0-40,17.944-40,40c0,9.04,3.128,17.296,8.208,24
				H3.428v56c0,39.704,32.296,72,72,72h192c39.704,0,72-32.296,72-72v-56H298.54C308.948,309.824,315.428,295.664,315.428,280z
				 M323.428,336v40c0,30.872-25.128,56-56,56h-192c-30.872,0-56-25.128-56-56v-40H323.428z"/>
			<path d="M395.428,80h48v224h16V40c0-22.056-17.944-40-40-40c-22.056,0-40,17.944-40,40v264h16V80z M395.428,40
				c0-13.232,10.768-24,24-24s24,10.768,24,24v24h-48V40z"/>
			<path d="M492.572,496L476.06,372.184c4.528-5.528,7.368-12.496,7.368-20.184c0-17.648-14.352-32-32-32h-64
				c-17.648,0-32,14.352-32,32c0,7.688,2.84,14.656,7.368,20.184L346.284,496H492.572z M387.428,336h64c8.824,0,16,7.176,16,16
				c0,8.824-7.176,16-16,16h-64c-8.824,0-16-7.176-16-16C371.428,343.176,378.604,336,387.428,336z M377.596,382.296
				c3.112,1.016,6.376,1.704,9.832,1.704h64c3.456,0,6.72-0.688,9.832-1.704L474.284,480h-14.856v-48h-16v48h-16v-48h-16v48h-16v-48
				h-16v48h-14.856L377.596,382.296z"/>
		</g>
	</g>
</g>
<g>
</g>
<g>
</g>
<g>
</g>
<g>
</g>
<g>
</g>
<g>
</g>
<g>
</g>
<g>
</g>
<g>
</g>
<g>
</g>
<g>
</g>
<g>
</g>
<g>
</g>
<g>
</g>
<g>
</g>
</svg>
